<svg id="Layer_1" data-name="Layer 1" xmlns="http://www.w3.org/2000/svg" viewBox="0 0 136.81 43.6"><defs><style>.cls-1{fill:#f27d16;}.cls-2{fill:#1d65a1;}</style></defs><path class="cls-1" d="M119.84,23.58c0,3.05-1.88,5.31-5.45,5.31s-5.49-2.26-5.49-5.31v-8h2.87v7.84a2.61,2.61,0,1,0,5.2,0V15.6h2.87Z"/><path class="cls-1" d="M125.66,23l-4.88-7.42h3.56l2.77,4.84L130,15.6h3.38L128.52,23v5.54h-2.86Z"/><path class="cls-2" d="M59.3,23.49h2.34V25.6a5.64,5.64,0,0,1-2.67.66,3.91,3.91,0,0,1-4-4.18,3.94,3.94,0,0,1,4-4.18,4,4,0,0,1,1.71.26,4,4,0,0,1,1.43,1l2-2.2A7.28,7.28,0,0,0,59,15.28c-4,0-7,2.67-7,6.8s3,6.81,7,6.81a11.55,11.55,0,0,0,5.44-1.27V20.86H59.34v2.63Z"/><path class="cls-2" d="M69.34,14.71H66.57V28.56h2.77Z"/><path class="cls-2" d="M80.84,24.1a4.94,4.94,0,1,0-4.93,4.65A4.57,4.57,0,0,0,80.84,24.1Zm-7.14,0a2.21,2.21,0,0,1,4.42,0A2.14,2.14,0,0,1,78,25a2,2,0,0,1-.47.75,2.17,2.17,0,0,1-.74.49,2,2,0,0,1-.87.14,2,2,0,0,1-1.62-.62,2,2,0,0,1-.47-.75A2.19,2.19,0,0,1,73.7,24.1Z"/><path class="cls-2" d="M88.3,19.45a3.34,3.34,0,0,0-2.82,1.18h0V14.71H82.71V28.56h2.54V27.38h0a3.47,3.47,0,0,0,1.19,1,3.53,3.53,0,0,0,1.53.38,4.27,4.27,0,0,0,4.36-4.6C92.38,21.71,90.83,19.45,88.3,19.45Zm-.85,6.9a2,2,0,0,1-.87-.14,2.17,2.17,0,0,1-.74-.49,2.32,2.32,0,0,1-.47-.75,2.14,2.14,0,0,1-.12-.87,2.17,2.17,0,0,1,.65-1.56,2.19,2.19,0,0,1,3.11,0,2.17,2.17,0,0,1,.65,1.56,1.89,1.89,0,0,1-.12.88,2,2,0,0,1-.47.75,2,2,0,0,1-1.62.62Z"/><path class="cls-2" d="M102.1,28.56V24.05c0-2.95-.85-4.6-4.09-4.6a5.68,5.68,0,0,0-3.89,1.41l1.45,1.5a3,3,0,0,1,1-.79,2.83,2.83,0,0,1,1.25-.29,1.8,1.8,0,0,1,.65.09,1.53,1.53,0,0,1,.56.34,1.62,1.62,0,0,1,.52,1.17c-2.3,0-6,.05-6,3.14,0,1.79,1.5,2.73,3.14,2.73a3.31,3.31,0,0,0,1.58-.3,3.23,3.23,0,0,0,1.24-1h0v1.13Zm-4.6-1.65c-.61,0-1.32-.32-1.32-1,0-1.22,1.88-1.27,2.73-1.27h.65v.57C99.56,26.35,98.58,26.91,97.5,26.91Z"/><path class="cls-2" d="M106.65,14.71h-2.77V28.56h2.77Z"/><path class="cls-2" d="M46.44,18A14.85,14.85,0,1,0,21.66,29l6.75,7.6v3.1a.88.88,0,0,0,.07.32.78.78,0,0,0,.46.46.88.88,0,0,0,.32.07H34a1,1,0,0,0,.33-.07.8.8,0,0,0,.27-.18.75.75,0,0,0,.18-.28.71.71,0,0,0,.07-.32v-3.1L41.56,29a15.06,15.06,0,0,0,4.88-11Zm-28,.38h5.63c.09,5.49,1.74,10.13,4.18,12.34a13.1,13.1,0,0,1-9.81-12.34Zm12-13.52a5.24,5.24,0,0,1,.79,0V17.53H24.9C25,11.15,27.34,5.94,30.39,4.81Zm7.83,12.72H32V4.76a5.29,5.29,0,0,1,.8,0C35.83,5.94,38.13,11.15,38.22,17.53ZM32.78,31a4.25,4.25,0,0,1-.8.05V18.33h6.24C38.13,24.71,35.83,30,32.78,31ZM31.14,18.33V31.09a4.25,4.25,0,0,1-.8-.05C27.34,30,25,24.71,24.9,18.33Zm7.93,0h5.68a13.25,13.25,0,0,1-9.86,12.34C37.33,28.46,39,23.86,39.07,18.33Zm5.68-.8H39.07C39,12,37.33,7.44,34.89,5.19a13.19,13.19,0,0,1,9.86,12.34ZM28.23,5.19c-2.44,2.2-4.09,6.85-4.18,12.34H18.42A13.15,13.15,0,0,1,28.23,5.19Zm4.83,33.69h-3V37.52h3Zm.66-3.05H29.4l-3.85-4.32a14.84,14.84,0,0,0,6,1.27,15.18,15.18,0,0,0,6-1.27Z"/><path class="cls-2" d="M14.71,27.38h-4a.85.85,0,0,0-.84.85.86.86,0,0,0,.25.6.87.87,0,0,0,.59.24h4a.89.89,0,0,0,.6-.24.86.86,0,0,0,.25-.6.84.84,0,0,0-.25-.6A.86.86,0,0,0,14.71,27.38Z"/><path class="cls-2" d="M13.58,23.07a1,1,0,0,0-.06-.33.8.8,0,0,0-.18-.27.75.75,0,0,0-.28-.18.71.71,0,0,0-.32-.07H7.58a.85.85,0,0,0-.85.85.82.82,0,0,0,.25.59.84.84,0,0,0,.6.25h5.16a.87.87,0,0,0,.32-.06.77.77,0,0,0,.28-.19.71.71,0,0,0,.18-.27A.87.87,0,0,0,13.58,23.07Z"/><path class="cls-2" d="M11.8,18a.87.87,0,0,0-.06-.32.77.77,0,0,0-.19-.28.71.71,0,0,0-.27-.18.87.87,0,0,0-.32-.06H4.25a.87.87,0,0,0-.6.24.86.86,0,0,0-.25.6.85.85,0,0,0,.85.85H11a.92.92,0,0,0,.58-.27A.89.89,0,0,0,11.8,18Z"/></svg>