<svg id="Layer_1" data-name="Layer 1" xmlns="http://www.w3.org/2000/svg" viewBox="0 0 81.69 75.29"><defs><style>.cls-1{fill:#f5a142;}.cls-2{fill:#0067a6;}</style></defs><path class="cls-1" d="M66.59,67.67a4.29,4.29,0,0,1-4.68,4.57,4.3,4.3,0,0,1-4.69-4.57V60.85h2.45v6.73a2.24,2.24,0,1,0,4.47,0V60.85h2.45Z"/><path class="cls-1" d="M71.58,67.22,67.4,60.85h3L72.8,65l2.5-4.15h2.9L74,67.22V72H71.58Z"/><path class="cls-2" d="M27.87,36.91l9,10.17a.59.59,0,0,0,0,.13v4A1.12,1.12,0,0,0,38,52.37h6.27a1.12,1.12,0,0,0,1.12-1.12v-4s0-.08,0-.12l9-10.18a19.85,19.85,0,1,0-26.52,0ZM43.15,50.14h-4V48.33h4ZM45.59,39.2c3.25-3,5.46-9.15,5.57-16.49h7.57A17.63,17.63,0,0,1,45.59,39.2ZM58.73,21.6H51.16c-.11-7.34-2.32-13.51-5.57-16.49A17.64,17.64,0,0,1,58.73,21.6Zm-17-17c.35,0,.7,0,1.05.07,4.06,1.48,7.17,8.49,7.3,17H41.69Zm0,18.16H50c-.13,8.49-3.24,15.5-7.3,17l-1.05.06Zm7.45,17.6L44,46.09H38.25l-5.13-5.78a19.83,19.83,0,0,0,16,0ZM32.22,22.71h8.35v17l-1-.06C35.46,38.21,32.35,31.2,32.22,22.71Zm7.3-18.09c.35,0,.7-.06,1-.07V21.6H32.22C32.35,13.11,35.46,6.1,39.52,4.62Zm-2.84.49c-3.25,3-5.47,9.15-5.57,16.49H23.53A17.66,17.66,0,0,1,36.68,5.11Zm-5.57,17.6c.1,7.34,2.32,13.52,5.57,16.49A17.65,17.65,0,0,1,23.53,22.71Z"/><path class="cls-2" d="M12.11,35.9A1.12,1.12,0,0,0,13.22,37H18.6a1.12,1.12,0,0,0,0-2.23H13.22A1.11,1.11,0,0,0,12.11,35.9Z"/><path class="cls-2" d="M16,30.15a1.12,1.12,0,0,0,0-2.24H9.05a1.12,1.12,0,0,0,0,2.24Z"/><path class="cls-2" d="M14.71,22.16A1.12,1.12,0,0,0,13.6,21h-9a1.12,1.12,0,1,0,0,2.23h9A1.11,1.11,0,0,0,14.71,22.16Z"/><path class="cls-2" d="M14.69,67.62h2v1.81a4.75,4.75,0,0,1-2.3.55,3.58,3.58,0,0,1,0-7.16,3.42,3.42,0,0,1,2.7,1L18.8,62a6.3,6.3,0,0,0-4.42-1.43,5.84,5.84,0,1,0,0,11.68A10,10,0,0,0,19,71.17V65.36H14.69Z"/><rect class="cls-2" x="20.92" y="60.09" width="2.35" height="11.86"/><path class="cls-2" d="M33.16,68.14a4,4,0,0,0-4.24-4,4,4,0,1,0,0,8A4,4,0,0,0,33.16,68.14Zm-6.12,0a1.88,1.88,0,1,1,1.88,1.93A1.78,1.78,0,0,1,27,68.14Z"/><path class="cls-2" d="M39.56,64.14a2.86,2.86,0,0,0-2.42,1h0V60.09H34.76V72h2.16V71h0a3,3,0,0,0,2.34,1.19A3.66,3.66,0,0,0,43,68.2C43,66.09,41.72,64.14,39.56,64.14Zm-.75,5.93a1.93,1.93,0,1,1,1.88-1.93A1.79,1.79,0,0,1,38.81,70.07Z"/><path class="cls-2" d="M51.37,72V68.08c0-2.54-.74-3.94-3.48-3.94a5,5,0,0,0-3.36,1.22l1.26,1.29a2.52,2.52,0,0,1,1.91-.91,1.4,1.4,0,0,1,1.51,1.37c-2,0-5.17,0-5.17,2.68a2.44,2.44,0,0,0,2.72,2.35A2.76,2.76,0,0,0,49.18,71h0v1Zm-3.95-1.41c-.52,0-1.12-.26-1.12-.83,0-1,1.6-1.1,2.33-1.1h.58v.5C49.21,70.06,48.34,70.54,47.42,70.54Z"/><rect class="cls-2" x="52.88" y="60.09" width="2.35" height="11.86"/></svg>